<?xml version="1.0" encoding="utf-8"?>
<!-- Generator: Adobe Illustrator 27.0.0, SVG Export Plug-In . SVG Version: 6.00 Build 0)  -->
<svg version="1.1" id="Layer_1" xmlns="http://www.w3.org/2000/svg" xmlns:xlink="http://www.w3.org/1999/xlink" x="0px" y="0px"
	 viewBox="0 0 1110 384" style="enable-background:new 0 0 1110 384;" xml:space="preserve">
<style type="text/css">
	.st0{fill:#003C71;}
	.st1{fill:#F16522;}
	.st2{fill:#8BC53F;}
</style>
<g>
	<g>
		<g>
			<path class="st0" d="M508.1,157.9c-6.4,6.4-14.8,10-25.6,10c-10.9,0-19.2-3.6-25.6-10c-9.7-9.7-10-19.6-10-40.4
				c0-20.7,0.3-30.6,10-40.4c6.4-6.4,14.8-10,25.6-10c10.9,0,19.2,3.6,25.6,10c9.7,9.7,10,19.6,10,40.4
				C518.2,138.3,517.9,148.2,508.1,157.9z M497.3,86.6c-3.8-3.9-8.8-6.1-14.8-6.1c-6,0-11,2.2-14.8,6.1c-4.9,5.3-5.8,11.3-5.8,30.9
				c0,19.6,1,25.5,5.8,30.8c3.8,3.9,8.8,6.3,14.8,6.3c6,0,11-2.4,14.8-6.3c5-5.2,5.8-11.1,5.8-30.8
				C503.1,97.9,502.3,91.8,497.3,86.6z"/>
			<path class="st0" d="M547.4,167.1V68h15v99.1H547.4z"/>
			<path class="st0" d="M621.6,167.9c-14.9,0-25.5-3.5-35.1-13.1l9.9-9.9c7.2,7.2,15.5,9.6,25.5,9.6c13.1,0,20.5-5.6,20.5-15.3
				c0-4.5-1.1-7.9-3.9-10.3c-2.5-2.2-5.8-3.5-10.9-4.2l-11.7-1.7c-8.1-1.3-14.3-3.8-18.7-7.9c-4.9-4.5-7.4-10.9-7.4-19.1
				c0-17.3,12.5-29,33.1-29c13.2,0,22.3,3.3,30.8,11.3l-9.5,9.5c-6.1-5.8-13.4-7.7-21.9-7.7c-11.7,0-18,6.4-18,15.5
				c0,3.6,1,7,3.6,9.2c2.5,2.2,5.4,3.6,10.9,4.5l11.8,1.8c9,1.4,14.1,3.5,18.4,7.4c5.3,4.9,8.1,11.7,8.1,20.3
				C657.2,157.1,642.5,167.9,621.6,167.9z"/>
			<path class="st0" d="M476.8,316.4c-14.9,0-25.5-3.5-35.1-13.1l9.9-9.9c7.2,7.2,15.5,9.6,25.5,9.6c13.1,0,20.5-5.6,20.5-15.3
				c0-4.5-1.1-7.9-3.9-10.3c-2.5-2.2-5.8-3.5-10.9-4.2l-11.7-1.7c-8.1-1.3-14.3-3.8-18.7-7.9c-4.9-4.5-7.4-10.9-7.4-19.1
				c0-17.3,12.5-29,33.1-29c13.2,0,22.3,3.3,30.8,11.3l-9.5,9.5c-6.1-5.8-13.4-7.7-21.9-7.7c-11.7,0-18,6.4-18,15.5
				c0,3.6,1,7,3.6,9.2c2.5,2.2,5.4,3.6,10.9,4.5l11.8,1.8c9,1.4,14.1,3.5,18.4,7.4c5.3,4.9,8.1,11.7,8.1,20.3
				C512.5,305.6,497.7,316.4,476.8,316.4z"/>
			<path class="st0" d="M539.6,315.6v-99.1h63.3V230h-48.3v29h41.2v13.4h-41.2v29.8h48.3v13.5H539.6z"/>
			<path class="st0" d="M685.2,315.6l-20.9-41.8h-18.8v41.8h-15v-99.1h38.4c18.8,0,30.8,12.1,30.8,29c0,14.2-8.6,23.2-19.8,26.3
				l22.8,43.9H685.2z M667.8,230h-22.3v31h22.3c10,0,16.8-5.7,16.8-15.5S677.9,230,667.8,230z"/>
			<path class="st0" d="M760,315.6h-11.7l-32.6-99.1h15.6l22.8,72.1l22.8-72.1h15.9L760,315.6z"/>
			<path class="st0" d="M813.5,315.6v-99.1h15v99.1H813.5z"/>
			<path class="st0" d="M893.4,316.4c-10.9,0-19.2-3.6-25.6-10c-9.6-9.7-10-19.6-10-40.4s0.4-30.6,10-40.4c6.4-6.4,14.8-10,25.6-10
				c18.2,0,31.9,10.9,35.4,30.5h-15.3c-2.2-10.2-9-17.1-20-17.1c-6,0-11,2.2-14.6,6.1c-5,5.3-6,11.3-6,30.9c0,19.6,1,25.6,6,30.9
				c3.6,3.9,8.6,6.1,14.6,6.1c11,0,18-7,20.3-17.1h15C925.3,305.6,911.5,316.4,893.4,316.4z"/>
			<path class="st0" d="M955.8,315.6v-99.1h63.3V230h-48.3v29h41.2v13.4h-41.2v29.8h48.3v13.5H955.8z"/>
			<path class="st0" d="M1073,316.4c-14.9,0-25.5-3.5-35.1-13.1l9.9-9.9c7.2,7.2,15.5,9.6,25.5,9.6c13.1,0,20.5-5.6,20.5-15.3
				c0-4.5-1.1-7.9-3.9-10.3c-2.5-2.2-5.8-3.5-10.9-4.2l-11.7-1.7c-8.1-1.3-14.3-3.8-18.7-7.9c-4.9-4.5-7.4-10.9-7.4-19.1
				c0-17.3,12.5-29,33.1-29c13.2,0,22.3,3.3,30.8,11.3l-9.5,9.5c-6.1-5.8-13.4-7.7-21.9-7.7c-11.7,0-18,6.4-18,15.5
				c0,3.6,1,7,3.6,9.2c2.5,2.2,5.4,3.6,10.9,4.5l11.8,1.8c9,1.4,14.1,3.5,18.4,7.4c5.3,4.9,8.1,11.7,8.1,20.3
				C1108.6,305.6,1093.9,316.4,1073,316.4z"/>
		</g>
	</g>
</g>
<g>
	<path class="st0" d="M377.6,153.1h-81.9c-16-42.2-56.7-72.2-104.4-72.2C134.2,80.9,87,124,80.5,179.4h78.3v26.3H54
		c-0.4-4.3-0.6-8.7-0.6-13.1c0-76,61.8-137.9,137.9-137.9c52.3,0,97.8,29.2,121.2,72.2H370C343.2,54.1,273.2,2.1,191.3,2.1
		C86.3,2.1,0.9,87.5,0.9,192.5c0,13.5,1.4,26.7,4.1,39.4h81.9c16,42.2,56.7,72.2,104.4,72.2c57.1,0,104.3-43.1,110.8-98.5h-78.3
		l0-26.3h104.7c0.4,4.3,0.6,8.7,0.6,13.1c0,76-61.8,137.9-137.9,137.9c-52.3,0-97.8-29.2-121.2-72.2H12.5
		c26.8,72.7,96.8,124.7,178.7,124.7c105,0,190.4-85.4,190.4-190.4C381.7,179,380.2,165.8,377.6,153.1z"/>
	<g>
		<g>
			<path class="st1" d="M191.3,28.4c-90.6,0-164.1,73.5-164.1,164.1c0,4.4,0.2,8.8,0.5,13.1H54c-0.4-4.3-0.6-8.7-0.6-13.1
				c0-76,61.8-137.9,137.9-137.9c52.3,0,97.8,29.2,121.2,72.2h29.3C316.4,68.9,258.6,28.4,191.3,28.4z"/>
			<path class="st1" d="M328.5,179.4c0.4,4.3,0.6,8.7,0.6,13.1c0,76-61.8,137.9-137.9,137.9c-52.3,0-97.8-29.2-121.2-72.2H40.8
				c25.3,58,83.2,98.5,150.5,98.5c90.6,0,164.1-73.5,164.1-164.1c0-4.4-0.2-8.8-0.5-13.1H328.5z"/>
		</g>
	</g>
	<rect x="175" y="111.2" class="st2" width="32.5" height="162.5"/>
</g>
</svg>
